<svg xmlns="http://www.w3.org/2000/svg" xmlns:xlink="http://www.w3.org/1999/xlink" viewBox="0 0 60 41">
  <defs>
    <filter id="glow">
      <feGaussianBlur stdDeviation="0.3" result="coloredBlur"/>
      <feMerge>
        <feMergeNode in="coloredBlur"/>
        <feMergeNode in="SourceGraphic"/>
      </feMerge>
    </filter>
  </defs>
  <g fill="none" stroke="#22D3EE" stroke-width="0.8" filter="url(#glow)">
    <!-- Base cylinder outlines -->
    <path d="M29.137 22.837c16.144 0 29.137-5.119 29.137-11.419S45.281 0 29.137 0 0 5.119 0 11.419s12.994 11.419 29.137 11.419z" opacity="0.4"/>
    <path d="M58.274 11.419c0 6.3-12.994 11.419-29.137 11.419S0 17.719 0 11.419v16.537c0 6.3 12.994 11.419 29.137 11.419s29.137-5.119 29.137-11.419z" opacity="0.4"/>

    <!-- Grid lines -->
    <path d="M14.5 11.419 h43.774" opacity="0.2"/>
    <path d="M29.137 5.419 v16.418" opacity="0.2"/>
    <path d="M43.774 11.419 h-43.774" opacity="0.2"/>

    <!-- Network connections -->
    <path d="M22.448 7.081l2.363 3.544-9.056 1.969 1.969-1.575L3.942 8.656 7.486 5.9l13.388 2.362 1.575-1.181z" stroke-width="1"/>
    <path d="M35.442 15.743L33.473 12.2l8.269-1.969-1.181 1.575 13.388 2.362-3.15 2.363-13.781-2.363-1.575 1.575z" stroke-width="1"/>
    <path d="M30.717 5.113l9.056-2.362.394 3.544-2.363-.394-4.331 3.938-4.331-.787 4.331-3.544-2.756-.394z" stroke-width="1"/>
    <path d="M26.78 19.288l-8.662 1.575-.394-4.331 2.756.787 4.725-4.331 4.331.787-5.119 4.725 2.362.788z" stroke-width="1"/>

    <!-- Corner brackets -->
    <path d="M2 2 h6 M2 2 v6" stroke-width="1"/>
    <path d="M58 2 h-6 M58 2 v6" stroke-width="1"/>
    <path d="M2 39 h6 M2 39 v-6" stroke-width="1"/>
    <path d="M58 39 h-6 M58 39 v-6" stroke-width="1"/>
  </g>
</svg>